<svg version="1.1" id="Layer_1" xmlns="http://www.w3.org/2000/svg" xmlns:xlink="http://www.w3.org/1999/xlink" x="0px" y="0px"
	 width="100%" viewBox="0 0 489 489" enable-background="new 0 0 489 489" xml:space="preserve">
<path fill="#000000" opacity="1.000000" stroke="none" 
	d="
M234.000000,490.000000 
	C156.356567,490.000000 78.713142,490.000000 1.034859,490.000000 
	C1.034859,327.072021 1.034859,164.144028 1.034859,1.108017 
	C163.879150,1.108017 326.758423,1.108017 490.000000,1.108017 
	C490.000000,78.355598 490.000000,155.711761 489.580383,233.710938 
	C488.774353,233.343338 488.158539,232.359375 488.037537,231.317917 
	C486.977203,222.194107 486.313629,213.013535 484.945435,203.938278 
	C481.685059,182.311813 474.720093,161.752563 465.428131,142.053680 
	C456.813293,123.790329 446.569824,106.358734 432.791901,91.472343 
	C421.272797,79.026436 409.714600,66.367020 396.649811,55.661995 
	C378.672241,40.931492 358.436615,29.521616 336.671448,20.806942 
	C309.125641,9.777736 280.562775,3.706524 251.071823,3.278399 
	C235.356842,3.050262 219.518509,5.050188 203.882874,7.142898 
	C182.216766,10.042740 161.694580,17.301395 141.997101,26.604137 
	C123.735275,35.228844 106.307030,45.471096 91.425018,59.253944 
	C78.983276,70.776764 66.334419,82.342545 55.624447,95.403931 
	C40.886181,113.378052 29.481127,133.615936 20.778337,155.386353 
	C9.764937,182.936874 4.257432,211.506561 3.091669,240.993301 
	C2.818249,247.909149 3.544625,254.878159 4.034519,261.806885 
	C4.579583,269.515991 4.793044,277.313995 6.174012,284.886749 
	C11.303130,313.013062 20.185125,339.833832 34.330669,364.871490 
	C49.990021,392.588623 70.087166,416.529877 94.963844,436.226593 
	C111.129509,449.026215 128.689346,459.811432 147.771729,468.000946 
	C174.315186,479.392487 201.764374,486.769684 230.729691,488.077850 
	C231.846451,488.128265 232.911072,489.333099 234.000000,490.000000 
z"/>
<path fill="#B38A48" opacity="1.000000" stroke="none" 
	d="
M234.468628,490.000000 
	C232.911072,489.333099 231.846451,488.128265 230.729691,488.077850 
	C201.764374,486.769684 174.315186,479.392487 147.771729,468.000946 
	C128.689346,459.811432 111.129509,449.026215 94.963844,436.226593 
	C70.087166,416.529877 49.990021,392.588623 34.330669,364.871490 
	C20.185125,339.833832 11.303130,313.013062 6.174012,284.886749 
	C4.793044,277.313995 4.579583,269.515991 4.034519,261.806885 
	C3.544625,254.878159 2.818249,247.909149 3.091669,240.993301 
	C4.257432,211.506561 9.764937,182.936874 20.778337,155.386353 
	C29.481127,133.615936 40.886181,113.378052 55.624447,95.403931 
	C66.334419,82.342545 78.983276,70.776764 91.425018,59.253944 
	C106.307030,45.471096 123.735275,35.228844 141.997101,26.604137 
	C161.694580,17.301395 182.216766,10.042740 203.882874,7.142898 
	C219.518509,5.050188 235.356842,3.050262 251.071823,3.278399 
	C280.562775,3.706524 309.125641,9.777736 336.671448,20.806942 
	C358.436615,29.521616 378.672241,40.931492 396.649811,55.661995 
	C409.714600,66.367020 421.272797,79.026436 432.791901,91.472343 
	C446.569824,106.358734 456.813293,123.790329 465.428131,142.053680 
	C474.720093,161.752563 481.685059,182.311813 484.945435,203.938278 
	C486.313629,213.013535 486.977203,222.194107 488.037537,231.317917 
	C488.158539,232.359375 488.774353,233.343338 489.580383,234.176971 
	C490.000000,241.687576 490.000000,249.375168 489.580353,257.354431 
	C488.773621,258.822083 488.194733,259.971710 488.028900,261.178131 
	C486.225006,274.300751 485.422852,287.642914 482.529114,300.516479 
	C476.918671,325.476257 467.360809,348.984589 454.083252,371.011230 
	C438.881958,396.229218 419.943726,418.156525 396.922455,436.332764 
	C380.756622,449.096436 363.206024,459.847534 344.140503,468.027496 
	C317.619080,479.406464 290.198792,486.762421 261.265350,488.077789 
	C260.150055,488.128479 259.087250,489.333099 258.000000,490.000000 
	C250.312424,490.000000 242.624832,490.000000 234.468628,490.000000 
M447.342255,167.131546 
	C407.650482,68.909149 305.126312,14.358681 200.672806,35.885101 
	C83.761757,59.978848 7.479110,178.958664 34.410793,295.207825 
	C61.865944,413.716492 177.534866,486.200409 295.759247,458.981781 
	C392.413940,436.729126 462.574615,348.916382 462.991150,249.764954 
	C463.110046,221.458328 457.980438,194.165482 447.342255,167.131546 
z"/>
<path fill="#000000" opacity="1.000000" stroke="none" 
	d="
M258.468658,490.000000 
	C259.087250,489.333099 260.150055,488.128479 261.265350,488.077789 
	C290.198792,486.762421 317.619080,479.406464 344.140503,468.027496 
	C363.206024,459.847534 380.756622,449.096436 396.922455,436.332764 
	C419.943726,418.156525 438.881958,396.229218 454.083252,371.011230 
	C467.360809,348.984589 476.918671,325.476257 482.529114,300.516479 
	C485.422852,287.642914 486.225006,274.300751 488.028900,261.178131 
	C488.194733,259.971710 488.773621,258.822083 489.580353,257.823059 
	C490.000000,335.260376 490.000000,412.520721 490.000000,490.000000 
	C412.979248,490.000000 335.958282,490.000000 258.468658,490.000000 
z"/>
<path fill="#FCFBFB" opacity="1.000000" stroke="none" 
	d="
M447.514648,167.475891 
	C457.980438,194.165482 463.110046,221.458328 462.991150,249.764954 
	C462.574615,348.916382 392.413940,436.729126 295.759247,458.981781 
	C177.534866,486.200409 61.865944,413.716492 34.410793,295.207825 
	C7.479110,178.958664 83.761757,59.978848 200.672806,35.885101 
	C305.126312,14.358681 407.650482,68.909149 447.514648,167.475891 
M336.704834,66.755432 
	C293.798401,45.653572 248.983810,40.089798 202.166229,49.900288 
	C93.875191,72.592369 22.558477,182.813156 46.330124,290.910065 
	C71.115105,403.614868 180.281921,473.121033 292.603455,446.854462 
	C395.936798,422.689850 464.044617,322.929932 446.487518,216.475586 
	C435.339752,148.882874 398.004608,99.156967 336.704834,66.755432 
z"/>
<path fill="#010101" opacity="1.000000" stroke="none" 
	d="
M337.047424,66.903694 
	C398.004608,99.156967 435.339752,148.882874 446.487518,216.475586 
	C464.044617,322.929932 395.936798,422.689850 292.603455,446.854462 
	C180.281921,473.121033 71.115105,403.614868 46.330124,290.910065 
	C22.558477,182.813156 93.875191,72.592369 202.166229,49.900288 
	C248.983810,40.089798 293.798401,45.653572 337.047424,66.903694 
M215.788101,209.500259 
	C215.788101,260.921326 215.788101,312.342407 215.788101,363.878723 
	C236.889389,363.878723 257.298401,363.878723 277.983551,363.878723 
	C277.983551,362.631073 277.983521,361.669800 277.983521,360.708496 
	C277.982849,306.714630 277.982147,252.720749 277.981567,198.726883 
	C277.981384,182.458221 277.981537,182.458252 293.528107,177.209274 
	C303.152466,173.959824 311.038879,178.695007 312.457245,188.743469 
	C312.873962,191.695724 312.836914,194.726196 312.838043,197.720886 
	C312.858643,251.214813 312.853058,304.708740 312.853149,358.202667 
	C312.853180,360.119720 312.853149,362.036743 312.853149,363.699219 
	C334.333771,363.699219 355.055573,363.699219 375.842224,363.699219 
	C375.915985,362.078064 376.014557,360.920807 376.014679,359.763519 
	C376.021576,302.936646 376.139984,246.109222 375.883698,189.283478 
	C375.847260,181.207962 374.934479,172.876907 372.777252,165.123184 
	C367.923401,147.677032 357.364471,135.182571 338.371948,132.724777 
	C319.499298,130.282486 302.512512,135.909622 287.361908,147.085526 
	C282.604187,150.595093 278.371429,154.816269 273.732483,158.856216 
	C273.228485,157.889465 272.925323,157.330017 272.642670,156.760437 
	C272.273254,156.015915 271.951416,155.246277 271.555054,154.516800 
	C265.453400,143.286880 256.766754,135.007080 243.791580,133.097183 
	C222.008820,129.890869 202.744781,136.224991 185.820023,150.076431 
	C184.397369,151.240753 183.002258,152.438782 180.568604,154.482574 
	C180.568604,147.552643 180.568604,142.153061 180.568604,136.670837 
	C159.467560,136.670837 138.885376,136.670837 118.088081,136.670837 
	C118.088081,212.562119 118.088081,288.126831 118.088081,363.866638 
	C139.017212,363.866638 159.743744,363.866638 180.571106,363.866638 
	C180.665497,363.110931 180.774307,362.646759 180.774231,362.182587 
	C180.765320,306.855896 180.747620,251.529205 180.732330,196.202515 
	C180.728729,183.182510 181.309692,182.381287 193.871292,178.004944 
	C194.340210,177.841599 194.824539,177.722443 195.292969,177.557877 
	C206.357666,173.671295 214.793320,178.917755 215.602371,190.510361 
	C216.019165,196.482330 215.748260,202.502289 215.788101,209.500259 
z"/>
<path fill="#FEFEFE" opacity="1.000000" stroke="none" 
	d="
M215.788101,209.000412 
	C215.748260,202.502289 216.019165,196.482330 215.602371,190.510361 
	C214.793320,178.917755 206.357666,173.671295 195.292969,177.557877 
	C194.824539,177.722443 194.340210,177.841599 193.871292,178.004944 
	C181.309692,182.381287 180.728729,183.182510 180.732330,196.202515 
	C180.747620,251.529205 180.765320,306.855896 180.774231,362.182587 
	C180.774307,362.646759 180.665497,363.110931 180.571106,363.866638 
	C159.743744,363.866638 139.017212,363.866638 118.088081,363.866638 
	C118.088081,288.126831 118.088081,212.562119 118.088081,136.670837 
	C138.885376,136.670837 159.467560,136.670837 180.568604,136.670837 
	C180.568604,142.153061 180.568604,147.552643 180.568604,154.482574 
	C183.002258,152.438782 184.397369,151.240753 185.820023,150.076431 
	C202.744781,136.224991 222.008820,129.890869 243.791580,133.097183 
	C256.766754,135.007080 265.453400,143.286880 271.555054,154.516800 
	C271.951416,155.246277 272.273254,156.015915 272.642670,156.760437 
	C272.925323,157.330017 273.228485,157.889465 273.732483,158.856216 
	C278.371429,154.816269 282.604187,150.595093 287.361908,147.085526 
	C302.512512,135.909622 319.499298,130.282486 338.371948,132.724777 
	C357.364471,135.182571 367.923401,147.677032 372.777252,165.123184 
	C374.934479,172.876907 375.847260,181.207962 375.883698,189.283478 
	C376.139984,246.109222 376.021576,302.936646 376.014679,359.763519 
	C376.014557,360.920807 375.915985,362.078064 375.842224,363.699219 
	C355.055573,363.699219 334.333771,363.699219 312.853149,363.699219 
	C312.853149,362.036743 312.853180,360.119720 312.853149,358.202667 
	C312.853058,304.708740 312.858643,251.214813 312.838043,197.720886 
	C312.836914,194.726196 312.873962,191.695724 312.457245,188.743469 
	C311.038879,178.695007 303.152466,173.959824 293.528107,177.209274 
	C277.981537,182.458252 277.981384,182.458221 277.981567,198.726883 
	C277.982147,252.720749 277.982849,306.714630 277.983521,360.708496 
	C277.983521,361.669800 277.983551,362.631073 277.983551,363.878723 
	C257.298401,363.878723 236.889389,363.878723 215.788101,363.878723 
	C215.788101,312.342407 215.788101,260.921326 215.788101,209.000412 
z"/>
</svg>